v 57.5 0.0 1450.0
v 57.395096 3.4717636 1450.0
v 57.08076 6.930859 1450.0
v 56.558147 10.364665 1450.0
v 55.829155 13.760651 1450.0
v 54.89645 17.106424 1450.0
v 53.763435 20.389782 1450.0
v 52.434242 23.598738 1450.0
v 50.913723 26.721584 1450.0
v 49.207424 29.746923 1450.0
v 47.32157 32.663727 1450.0
v 45.26305 35.461338 1450.0
v 43.03937 38.129555 1450.0
v 40.65864 40.65864 1450.0
v 38.129555 43.03937 1450.0
v 35.461338 45.26305 1450.0
v 32.663727 47.32157 1450.0
v 29.746923 49.207424 1450.0
v 26.721584 50.913723 1450.0
v 23.598738 52.434242 1450.0
v 20.389782 53.763435 1450.0
v 17.106424 54.89645 1450.0
v 13.760651 55.829155 1450.0
v 10.364665 56.558147 1450.0
v 6.930859 57.08076 1450.0
v 3.4717636 57.395096 1450.0
v -9.2467055E-15 57.5 1450.0
v -3.4717636 57.395096 1450.0
v -6.930859 57.08076 1450.0
v -10.364665 56.558147 1450.0
v -13.760651 55.829155 1450.0
v -17.106424 54.89645 1450.0
v -20.389782 53.763435 1450.0
v -23.598738 52.434242 1450.0
v -26.721584 50.913723 1450.0
v -29.746923 49.207424 1450.0
v -32.663727 47.32157 1450.0
v -35.461338 45.26305 1450.0
v -38.129555 43.03937 1450.0
v -40.65864 40.65864 1450.0
v -43.03937 38.129555 1450.0
v -45.26305 35.461338 1450.0
v -47.32157 32.663727 1450.0
v -49.207424 29.746923 1450.0
v -50.913723 26.721584 1450.0
v -52.434242 23.598738 1450.0
v -53.763435 20.389782 1450.0
v -54.89645 17.106424 1450.0
v -55.829155 13.760651 1450.0
v -56.558147 10.364665 1450.0
v -57.08076 6.930859 1450.0
v -57.395096 3.4717636 1450.0
v -57.5 -1.8493411E-14 1450.0
v -57.395096 -3.4717636 1450.0
v -57.08076 -6.930859 1450.0
v -56.558147 -10.364665 1450.0
v -55.829155 -13.760651 1450.0
v -54.89645 -17.106424 1450.0
v -53.763435 -20.389782 1450.0
v -52.434242 -23.598738 1450.0
v -50.913723 -26.721584 1450.0
v -49.207424 -29.746923 1450.0
v -47.32157 -32.663727 1450.0
v -45.26305 -35.461338 1450.0
v -43.03937 -38.129555 1450.0
v -40.65864 -40.65864 1450.0
v -38.129555 -43.03937 1450.0
v -35.461338 -45.26305 1450.0
v -32.663727 -47.32157 1450.0
v -29.746923 -49.207424 1450.0
v -26.721584 -50.913723 1450.0
v -23.598738 -52.434242 1450.0
v -20.389782 -53.763435 1450.0
v -17.106424 -54.89645 1450.0
v -13.760651 -55.829155 1450.0
v -10.364665 -56.558147 1450.0
v -6.930859 -57.08076 1450.0
v -3.4717636 -57.395096 1450.0
v -1.0562579E-14 -57.5 1450.0
v 3.4717636 -57.395096 1450.0
v 6.930859 -57.08076 1450.0
v 10.364665 -56.558147 1450.0
v 13.760651 -55.829155 1450.0
v 17.106424 -54.89645 1450.0
v 20.389782 -53.763435 1450.0
v 23.598738 -52.434242 1450.0
v 26.721584 -50.913723 1450.0
v 29.746923 -49.207424 1450.0
v 32.663727 -47.32157 1450.0
v 35.461338 -45.26305 1450.0
v 38.129555 -43.03937 1450.0
v 40.65864 -40.65864 1450.0
v 43.03937 -38.129555 1450.0
v 45.26305 -35.461338 1450.0
v 47.32157 -32.663727 1450.0
v 49.207424 -29.746923 1450.0
v 50.913723 -26.721584 1450.0
v 52.434242 -23.598738 1450.0
v 53.763435 -20.389782 1450.0
v 54.89645 -17.106424 1450.0
v 55.829155 -13.760651 1450.0
v 56.558147 -10.364665 1450.0
v 57.08076 -6.930859 1450.0
v 57.395096 -3.4717636 1450.0
v 57.5 0.0 0.0
v 57.395096 3.4717636 0.0
v 57.08076 6.930859 0.0
v 56.558147 10.364665 0.0
v 55.829155 13.760651 0.0
v 54.89645 17.106424 0.0
v 53.763435 20.389782 0.0
v 52.434242 23.598738 0.0
v 50.913723 26.721584 0.0
v 49.207424 29.746923 0.0
v 47.32157 32.663727 0.0
v 45.26305 35.461338 0.0
v 43.03937 38.129555 0.0
v 40.65864 40.65864 0.0
v 38.129555 43.03937 0.0
v 35.461338 45.26305 0.0
v 32.663727 47.32157 0.0
v 29.746923 49.207424 0.0
v 26.721584 50.913723 0.0
v 23.598738 52.434242 0.0
v 20.389782 53.763435 0.0
v 17.106424 54.89645 0.0
v 13.760651 55.829155 0.0
v 10.364665 56.558147 0.0
v 6.930859 57.08076 0.0
v 3.4717636 57.395096 0.0
v -9.2467055E-15 57.5 0.0
v -3.4717636 57.395096 0.0
v -6.930859 57.08076 0.0
v -10.364665 56.558147 0.0
v -13.760651 55.829155 0.0
v -17.106424 54.89645 0.0
v -20.389782 53.763435 0.0
v -23.598738 52.434242 0.0
v -26.721584 50.913723 0.0
v -29.746923 49.207424 0.0
v -32.663727 47.32157 0.0
v -35.461338 45.26305 0.0
v -38.129555 43.03937 0.0
v -40.65864 40.65864 0.0
v -43.03937 38.129555 0.0
v -45.26305 35.461338 0.0
v -47.32157 32.663727 0.0
v -49.207424 29.746923 0.0
v -50.913723 26.721584 0.0
v -52.434242 23.598738 0.0
v -53.763435 20.389782 0.0
v -54.89645 17.106424 0.0
v -55.829155 13.760651 0.0
v -56.558147 10.364665 0.0
v -57.08076 6.930859 0.0
v -57.395096 3.4717636 0.0
v -57.5 -1.8493411E-14 0.0
v -57.395096 -3.4717636 0.0
v -57.08076 -6.930859 0.0
v -56.558147 -10.364665 0.0
v -55.829155 -13.760651 0.0
v -54.89645 -17.106424 0.0
v -53.763435 -20.389782 0.0
v -52.434242 -23.598738 0.0
v -50.913723 -26.721584 0.0
v -49.207424 -29.746923 0.0
v -47.32157 -32.663727 0.0
v -45.26305 -35.461338 0.0
v -43.03937 -38.129555 0.0
v -40.65864 -40.65864 0.0
v -38.129555 -43.03937 0.0
v -35.461338 -45.26305 0.0
v -32.663727 -47.32157 0.0
v -29.746923 -49.207424 0.0
v -26.721584 -50.913723 0.0
v -23.598738 -52.434242 0.0
v -20.389782 -53.763435 0.0
v -17.106424 -54.89645 0.0
v -13.760651 -55.829155 0.0
v -10.364665 -56.558147 0.0
v -6.930859 -57.08076 0.0
v -3.4717636 -57.395096 0.0
v -1.0562579E-14 -57.5 0.0
v 3.4717636 -57.395096 0.0
v 6.930859 -57.08076 0.0
v 10.364665 -56.558147 0.0
v 13.760651 -55.829155 0.0
v 17.106424 -54.89645 0.0
v 20.389782 -53.763435 0.0
v 23.598738 -52.434242 0.0
v 26.721584 -50.913723 0.0
v 29.746923 -49.207424 0.0
v 32.663727 -47.32157 0.0
v 35.461338 -45.26305 0.0
v 38.129555 -43.03937 0.0
v 40.65864 -40.65864 0.0
v 43.03937 -38.129555 0.0
v 45.26305 -35.461338 0.0
v 47.32157 -32.663727 0.0
v 49.207424 -29.746923 0.0
v 50.913723 -26.721584 0.0
v 52.434242 -23.598738 0.0
v 53.763435 -20.389782 0.0
v 54.89645 -17.106424 0.0
v 55.829155 -13.760651 0.0
v 56.558147 -10.364665 0.0
v 57.08076 -6.930859 0.0
v 57.395096 -3.4717636 0.0
v 60.0 0.0 1450.0
v 59.89053 3.6227095 1450.0
v 59.56253 7.2322 1450.0
v 59.017193 10.815302 1450.0
v 58.25651 14.358939 1450.0
v 57.28325 17.850183 1450.0
v 56.10097 21.276293 1450.0
v 54.71399 24.62477 1450.0
v 53.12736 27.88339 1450.0
v 51.346874 31.040268 1450.0
v 49.379032 34.083885 1450.0
v 47.231007 37.00313 1450.0
v 44.91065 39.78736 1450.0
v 42.426403 42.426403 1450.0
v 39.78736 44.91065 1450.0
v 37.00313 47.231007 1450.0
v 34.083885 49.379032 1450.0
v 31.040268 51.346874 1450.0
v 27.88339 53.12736 1450.0
v 24.62477 54.71399 1450.0
v 21.276293 56.10097 1450.0
v 17.850183 57.28325 1450.0
v 14.358939 58.25651 1450.0
v 10.815302 59.017193 1450.0
v 7.2322 59.56253 1450.0
v 3.6227095 59.89053 1450.0
v -9.648735E-15 60.0 1450.0
v -3.6227095 59.89053 1450.0
v -7.2322 59.56253 1450.0
v -10.815302 59.017193 1450.0
v -14.358939 58.25651 1450.0
v -17.850183 57.28325 1450.0
v -21.276293 56.10097 1450.0
v -24.62477 54.71399 1450.0
v -27.88339 53.12736 1450.0
v -31.040268 51.346874 1450.0
v -34.083885 49.379032 1450.0
v -37.00313 47.231007 1450.0
v -39.78736 44.91065 1450.0
v -42.426403 42.426403 1450.0
v -44.91065 39.78736 1450.0
v -47.231007 37.00313 1450.0
v -49.379032 34.083885 1450.0
v -51.346874 31.040268 1450.0
v -53.12736 27.88339 1450.0
v -54.71399 24.62477 1450.0
v -56.10097 21.276293 1450.0
v -57.28325 17.850183 1450.0
v -58.25651 14.358939 1450.0
v -59.017193 10.815302 1450.0
v -59.56253 7.2322 1450.0
v -59.89053 3.6227095 1450.0
v -60.0 -1.929747E-14 1450.0
v -59.89053 -3.6227095 1450.0
v -59.56253 -7.2322 1450.0
v -59.017193 -10.815302 1450.0
v -58.25651 -14.358939 1450.0
v -57.28325 -17.850183 1450.0
v -56.10097 -21.276293 1450.0
v -54.71399 -24.62477 1450.0
v -53.12736 -27.88339 1450.0
v -51.346874 -31.040268 1450.0
v -49.379032 -34.083885 1450.0
v -47.231007 -37.00313 1450.0
v -44.91065 -39.78736 1450.0
v -42.426403 -42.426403 1450.0
v -39.78736 -44.91065 1450.0
v -37.00313 -47.231007 1450.0
v -34.083885 -49.379032 1450.0
v -31.040268 -51.346874 1450.0
v -27.88339 -53.12736 1450.0
v -24.62477 -54.71399 1450.0
v -21.276293 -56.10097 1450.0
v -17.850183 -57.28325 1450.0
v -14.358939 -58.25651 1450.0
v -10.815302 -59.017193 1450.0
v -7.2322 -59.56253 1450.0
v -3.6227095 -59.89053 1450.0
v -1.1021821E-14 -60.0 1450.0
v 3.6227095 -59.89053 1450.0
v 7.2322 -59.56253 1450.0
v 10.815302 -59.017193 1450.0
v 14.358939 -58.25651 1450.0
v 17.850183 -57.28325 1450.0
v 21.276293 -56.10097 1450.0
v 24.62477 -54.71399 1450.0
v 27.88339 -53.12736 1450.0
v 31.040268 -51.346874 1450.0
v 34.083885 -49.379032 1450.0
v 37.00313 -47.231007 1450.0
v 39.78736 -44.91065 1450.0
v 42.426403 -42.426403 1450.0
v 44.91065 -39.78736 1450.0
v 47.231007 -37.00313 1450.0
v 49.379032 -34.083885 1450.0
v 51.346874 -31.040268 1450.0
v 53.12736 -27.88339 1450.0
v 54.71399 -24.62477 1450.0
v 56.10097 -21.276293 1450.0
v 57.28325 -17.850183 1450.0
v 58.25651 -14.358939 1450.0
v 59.017193 -10.815302 1450.0
v 59.56253 -7.2322 1450.0
v 59.89053 -3.6227095 1450.0
v 60.0 0.0 0.0
v 59.89053 3.6227095 0.0
v 59.56253 7.2322 0.0
v 59.017193 10.815302 0.0
v 58.25651 14.358939 0.0
v 57.28325 17.850183 0.0
v 56.10097 21.276293 0.0
v 54.71399 24.62477 0.0
v 53.12736 27.88339 0.0
v 51.346874 31.040268 0.0
v 49.379032 34.083885 0.0
v 47.231007 37.00313 0.0
v 44.91065 39.78736 0.0
v 42.426403 42.426403 0.0
v 39.78736 44.91065 0.0
v 37.00313 47.231007 0.0
v 34.083885 49.379032 0.0
v 31.040268 51.346874 0.0
v 27.88339 53.12736 0.0
v 24.62477 54.71399 0.0
v 21.276293 56.10097 0.0
v 17.850183 57.28325 0.0
v 14.358939 58.25651 0.0
v 10.815302 59.017193 0.0
v 7.2322 59.56253 0.0
v 3.6227095 59.89053 0.0
v -9.648735E-15 60.0 0.0
v -3.6227095 59.89053 0.0
v -7.2322 59.56253 0.0
v -10.815302 59.017193 0.0
v -14.358939 58.25651 0.0
v -17.850183 57.28325 0.0
v -21.276293 56.10097 0.0
v -24.62477 54.71399 0.0
v -27.88339 53.12736 0.0
v -31.040268 51.346874 0.0
v -34.083885 49.379032 0.0
v -37.00313 47.231007 0.0
v -39.78736 44.91065 0.0
v -42.426403 42.426403 0.0
v -44.91065 39.78736 0.0
v -47.231007 37.00313 0.0
v -49.379032 34.083885 0.0
v -51.346874 31.040268 0.0
v -53.12736 27.88339 0.0
v -54.71399 24.62477 0.0
v -56.10097 21.276293 0.0
v -57.28325 17.850183 0.0
v -58.25651 14.358939 0.0
v -59.017193 10.815302 0.0
v -59.56253 7.2322 0.0
v -59.89053 3.6227095 0.0
v -60.0 -1.929747E-14 0.0
v -59.89053 -3.6227095 0.0
v -59.56253 -7.2322 0.0
v -59.017193 -10.815302 0.0
v -58.25651 -14.358939 0.0
v -57.28325 -17.850183 0.0
v -56.10097 -21.276293 0.0
v -54.71399 -24.62477 0.0
v -53.12736 -27.88339 0.0
v -51.346874 -31.040268 0.0
v -49.379032 -34.083885 0.0
v -47.231007 -37.00313 0.0
v -44.91065 -39.78736 0.0
v -42.426403 -42.426403 0.0
v -39.78736 -44.91065 0.0
v -37.00313 -47.231007 0.0
v -34.083885 -49.379032 0.0
v -31.040268 -51.346874 0.0
v -27.88339 -53.12736 0.0
v -24.62477 -54.71399 0.0
v -21.276293 -56.10097 0.0
v -17.850183 -57.28325 0.0
v -14.358939 -58.25651 0.0
v -10.815302 -59.017193 0.0
v -7.2322 -59.56253 0.0
v -3.6227095 -59.89053 0.0
v -1.1021821E-14 -60.0 0.0
v 3.6227095 -59.89053 0.0
v 7.2322 -59.56253 0.0
v 10.815302 -59.017193 0.0
v 14.358939 -58.25651 0.0
v 17.850183 -57.28325 0.0
v 21.276293 -56.10097 0.0
v 24.62477 -54.71399 0.0
v 27.88339 -53.12736 0.0
v 31.040268 -51.346874 0.0
v 34.083885 -49.379032 0.0
v 37.00313 -47.231007 0.0
v 39.78736 -44.91065 0.0
v 42.426403 -42.426403 0.0
v 44.91065 -39.78736 0.0
v 47.231007 -37.00313 0.0
v 49.379032 -34.083885 0.0
v 51.346874 -31.040268 0.0
v 53.12736 -27.88339 0.0
v 54.71399 -24.62477 0.0
v 56.10097 -21.276293 0.0
v 57.28325 -17.850183 0.0
v 58.25651 -14.358939 0.0
v 59.017193 -10.815302 0.0
v 59.56253 -7.2322 0.0
v 59.89053 -3.6227095 0.0
vt 0.0 0.0
vt 0.009615385 0.0
vt 0.01923077 0.0
vt 0.028846154 0.0
vt 0.03846154 0.0
vt 0.048076924 0.0
vt 0.057692308 0.0
vt 0.067307696 0.0
vt 0.07692308 0.0
vt 0.086538464 0.0
vt 0.09615385 0.0
vt 0.10576923 0.0
vt 0.115384616 0.0
vt 0.125 0.0
vt 0.13461539 0.0
vt 0.14423077 0.0
vt 0.15384616 0.0
vt 0.16346154 0.0
vt 0.17307693 0.0
vt 0.1826923 0.0
vt 0.1923077 0.0
vt 0.20192307 0.0
vt 0.21153846 0.0
vt 0.22115384 0.0
vt 0.23076923 0.0
vt 0.24038461 0.0
vt 0.25 0.0
vt 0.2596154 0.0
vt 0.26923078 0.0
vt 0.27884614 0.0
vt 0.28846154 0.0
vt 0.29807693 0.0
vt 0.30769232 0.0
vt 0.31730768 0.0
vt 0.32692307 0.0
vt 0.33653846 0.0
vt 0.34615386 0.0
vt 0.35576922 0.0
vt 0.3653846 0.0
vt 0.375 0.0
vt 0.3846154 0.0
vt 0.39423078 0.0
vt 0.40384614 0.0
vt 0.41346154 0.0
vt 0.42307693 0.0
vt 0.43269232 0.0
vt 0.44230768 0.0
vt 0.45192307 0.0
vt 0.46153846 0.0
vt 0.47115386 0.0
vt 0.48076922 0.0
vt 0.4903846 0.0
vt 0.5 0.0
vt 0.50961536 0.0
vt 0.5192308 0.0
vt 0.52884614 0.0
vt 0.53846157 0.0
vt 0.5480769 0.0
vt 0.5576923 0.0
vt 0.5673077 0.0
vt 0.5769231 0.0
vt 0.58653843 0.0
vt 0.59615386 0.0
vt 0.6057692 0.0
vt 0.61538464 0.0
vt 0.625 0.0
vt 0.63461536 0.0
vt 0.6442308 0.0
vt 0.65384614 0.0
vt 0.66346157 0.0
vt 0.6730769 0.0
vt 0.6826923 0.0
vt 0.6923077 0.0
vt 0.7019231 0.0
vt 0.71153843 0.0
vt 0.72115386 0.0
vt 0.7307692 0.0
vt 0.74038464 0.0
vt 0.75 0.0
vt 0.75961536 0.0
vt 0.7692308 0.0
vt 0.77884614 0.0
vt 0.78846157 0.0
vt 0.7980769 0.0
vt 0.8076923 0.0
vt 0.8173077 0.0
vt 0.8269231 0.0
vt 0.83653843 0.0
vt 0.84615386 0.0
vt 0.8557692 0.0
vt 0.86538464 0.0
vt 0.875 0.0
vt 0.88461536 0.0
vt 0.8942308 0.0
vt 0.90384614 0.0
vt 0.91346157 0.0
vt 0.9230769 0.0
vt 0.9326923 0.0
vt 0.9423077 0.0
vt 0.9519231 0.0
vt 0.96153843 0.0
vt 0.97115386 0.0
vt 0.9807692 0.0
vt 0.99038464 0.0
vt 1.0 0.0
vt 0.0 1.0
vt 0.009615385 1.0
vt 0.01923077 1.0
vt 0.028846154 1.0
vt 0.03846154 1.0
vt 0.048076924 1.0
vt 0.057692308 1.0
vt 0.067307696 1.0
vt 0.07692308 1.0
vt 0.086538464 1.0
vt 0.09615385 1.0
vt 0.10576923 1.0
vt 0.115384616 1.0
vt 0.125 1.0
vt 0.13461539 1.0
vt 0.14423077 1.0
vt 0.15384616 1.0
vt 0.16346154 1.0
vt 0.17307693 1.0
vt 0.1826923 1.0
vt 0.1923077 1.0
vt 0.20192307 1.0
vt 0.21153846 1.0
vt 0.22115384 1.0
vt 0.23076923 1.0
vt 0.24038461 1.0
vt 0.25 1.0
vt 0.2596154 1.0
vt 0.26923078 1.0
vt 0.27884614 1.0
vt 0.28846154 1.0
vt 0.29807693 1.0
vt 0.30769232 1.0
vt 0.31730768 1.0
vt 0.32692307 1.0
vt 0.33653846 1.0
vt 0.34615386 1.0
vt 0.35576922 1.0
vt 0.3653846 1.0
vt 0.375 1.0
vt 0.3846154 1.0
vt 0.39423078 1.0
vt 0.40384614 1.0
vt 0.41346154 1.0
vt 0.42307693 1.0
vt 0.43269232 1.0
vt 0.44230768 1.0
vt 0.45192307 1.0
vt 0.46153846 1.0
vt 0.47115386 1.0
vt 0.48076922 1.0
vt 0.4903846 1.0
vt 0.5 1.0
vt 0.50961536 1.0
vt 0.5192308 1.0
vt 0.52884614 1.0
vt 0.53846157 1.0
vt 0.5480769 1.0
vt 0.5576923 1.0
vt 0.5673077 1.0
vt 0.5769231 1.0
vt 0.58653843 1.0
vt 0.59615386 1.0
vt 0.6057692 1.0
vt 0.61538464 1.0
vt 0.625 1.0
vt 0.63461536 1.0
vt 0.6442308 1.0
vt 0.65384614 1.0
vt 0.66346157 1.0
vt 0.6730769 1.0
vt 0.6826923 1.0
vt 0.6923077 1.0
vt 0.7019231 1.0
vt 0.71153843 1.0
vt 0.72115386 1.0
vt 0.7307692 1.0
vt 0.74038464 1.0
vt 0.75 1.0
vt 0.75961536 1.0
vt 0.7692308 1.0
vt 0.77884614 1.0
vt 0.78846157 1.0
vt 0.7980769 1.0
vt 0.8076923 1.0
vt 0.8173077 1.0
vt 0.8269231 1.0
vt 0.83653843 1.0
vt 0.84615386 1.0
vt 0.8557692 1.0
vt 0.86538464 1.0
vt 0.875 1.0
vt 0.88461536 1.0
vt 0.8942308 1.0
vt 0.90384614 1.0
vt 0.91346157 1.0
vt 0.9230769 1.0
vt 0.9326923 1.0
vt 0.9423077 1.0
vt 0.9519231 1.0
vt 0.96153843 1.0
vt 0.97115386 1.0
vt 0.9807692 1.0
vt 0.99038464 1.0
vt 1.0 1.0
vt 0.0 1.0
vt 0.009615385 1.0
vt 0.01923077 1.0
vt 0.028846154 1.0
vt 0.03846154 1.0
vt 0.048076924 1.0
vt 0.057692308 1.0
vt 0.067307696 1.0
vt 0.07692308 1.0
vt 0.086538464 1.0
vt 0.09615385 1.0
vt 0.10576923 1.0
vt 0.115384616 1.0
vt 0.125 1.0
vt 0.13461539 1.0
vt 0.14423077 1.0
vt 0.15384616 1.0
vt 0.16346154 1.0
vt 0.17307693 1.0
vt 0.1826923 1.0
vt 0.1923077 1.0
vt 0.20192307 1.0
vt 0.21153846 1.0
vt 0.22115384 1.0
vt 0.23076923 1.0
vt 0.24038461 1.0
vt 0.25 1.0
vt 0.2596154 1.0
vt 0.26923078 1.0
vt 0.27884614 1.0
vt 0.28846154 1.0
vt 0.29807693 1.0
vt 0.30769232 1.0
vt 0.31730768 1.0
vt 0.32692307 1.0
vt 0.33653846 1.0
vt 0.34615386 1.0
vt 0.35576922 1.0
vt 0.3653846 1.0
vt 0.375 1.0
vt 0.3846154 1.0
vt 0.39423078 1.0
vt 0.40384614 1.0
vt 0.41346154 1.0
vt 0.42307693 1.0
vt 0.43269232 1.0
vt 0.44230768 1.0
vt 0.45192307 1.0
vt 0.46153846 1.0
vt 0.47115386 1.0
vt 0.48076922 1.0
vt 0.4903846 1.0
vt 0.5 1.0
vt 0.50961536 1.0
vt 0.5192308 1.0
vt 0.52884614 1.0
vt 0.53846157 1.0
vt 0.5480769 1.0
vt 0.5576923 1.0
vt 0.5673077 1.0
vt 0.5769231 1.0
vt 0.58653843 1.0
vt 0.59615386 1.0
vt 0.6057692 1.0
vt 0.61538464 1.0
vt 0.625 1.0
vt 0.63461536 1.0
vt 0.6442308 1.0
vt 0.65384614 1.0
vt 0.66346157 1.0
vt 0.6730769 1.0
vt 0.6826923 1.0
vt 0.6923077 1.0
vt 0.7019231 1.0
vt 0.71153843 1.0
vt 0.72115386 1.0
vt 0.7307692 1.0
vt 0.74038464 1.0
vt 0.75 1.0
vt 0.75961536 1.0
vt 0.7692308 1.0
vt 0.77884614 1.0
vt 0.78846157 1.0
vt 0.7980769 1.0
vt 0.8076923 1.0
vt 0.8173077 1.0
vt 0.8269231 1.0
vt 0.83653843 1.0
vt 0.84615386 1.0
vt 0.8557692 1.0
vt 0.86538464 1.0
vt 0.875 1.0
vt 0.88461536 1.0
vt 0.8942308 1.0
vt 0.90384614 1.0
vt 0.91346157 1.0
vt 0.9230769 1.0
vt 0.9326923 1.0
vt 0.9423077 1.0
vt 0.9519231 1.0
vt 0.96153843 1.0
vt 0.97115386 1.0
vt 0.9807692 1.0
vt 0.99038464 1.0
vt 1.0 1.0
vt 0.0 0.0
vt 0.009615385 0.0
vt 0.01923077 0.0
vt 0.028846154 0.0
vt 0.03846154 0.0
vt 0.048076924 0.0
vt 0.057692308 0.0
vt 0.067307696 0.0
vt 0.07692308 0.0
vt 0.086538464 0.0
vt 0.09615385 0.0
vt 0.10576923 0.0
vt 0.115384616 0.0
vt 0.125 0.0
vt 0.13461539 0.0
vt 0.14423077 0.0
vt 0.15384616 0.0
vt 0.16346154 0.0
vt 0.17307693 0.0
vt 0.1826923 0.0
vt 0.1923077 0.0
vt 0.20192307 0.0
vt 0.21153846 0.0
vt 0.22115384 0.0
vt 0.23076923 0.0
vt 0.24038461 0.0
vt 0.25 0.0
vt 0.2596154 0.0
vt 0.26923078 0.0
vt 0.27884614 0.0
vt 0.28846154 0.0
vt 0.29807693 0.0
vt 0.30769232 0.0
vt 0.31730768 0.0
vt 0.32692307 0.0
vt 0.33653846 0.0
vt 0.34615386 0.0
vt 0.35576922 0.0
vt 0.3653846 0.0
vt 0.375 0.0
vt 0.3846154 0.0
vt 0.39423078 0.0
vt 0.40384614 0.0
vt 0.41346154 0.0
vt 0.42307693 0.0
vt 0.43269232 0.0
vt 0.44230768 0.0
vt 0.45192307 0.0
vt 0.46153846 0.0
vt 0.47115386 0.0
vt 0.48076922 0.0
vt 0.4903846 0.0
vt 0.5 0.0
vt 0.50961536 0.0
vt 0.5192308 0.0
vt 0.52884614 0.0
vt 0.53846157 0.0
vt 0.5480769 0.0
vt 0.5576923 0.0
vt 0.5673077 0.0
vt 0.5769231 0.0
vt 0.58653843 0.0
vt 0.59615386 0.0
vt 0.6057692 0.0
vt 0.61538464 0.0
vt 0.625 0.0
vt 0.63461536 0.0
vt 0.6442308 0.0
vt 0.65384614 0.0
vt 0.66346157 0.0
vt 0.6730769 0.0
vt 0.6826923 0.0
vt 0.6923077 0.0
vt 0.7019231 0.0
vt 0.71153843 0.0
vt 0.72115386 0.0
vt 0.7307692 0.0
vt 0.74038464 0.0
vt 0.75 0.0
vt 0.75961536 0.0
vt 0.7692308 0.0
vt 0.77884614 0.0
vt 0.78846157 0.0
vt 0.7980769 0.0
vt 0.8076923 0.0
vt 0.8173077 0.0
vt 0.8269231 0.0
vt 0.83653843 0.0
vt 0.84615386 0.0
vt 0.8557692 0.0
vt 0.86538464 0.0
vt 0.875 0.0
vt 0.88461536 0.0
vt 0.8942308 0.0
vt 0.90384614 0.0
vt 0.91346157 0.0
vt 0.9230769 0.0
vt 0.9326923 0.0
vt 0.9423077 0.0
vt 0.9519231 0.0
vt 0.96153843 0.0
vt 0.97115386 0.0
vt 0.9807692 0.0
vt 0.99038464 0.0
vt 1.0 0.0
vt 0.0 0.0
vt 0.0 0.0
vt 0.0 0.0
vt 0.0 0.0
vt 0.0 0.0
vt 0.0 0.0
vt 0.0 0.0
vt 0.0 0.0
vt 0.0 0.0
vt 0.0 0.0
vt 0.0 0.0
vt 0.0 0.0
vt 0.0 0.0
vt 0.0 0.0
vt 0.0 0.0
vt 0.0 0.0
vt 0.0 0.0
vt 0.0 0.0
vt 0.0 0.0
vt 0.0 0.0
vt 0.0 0.0
vt 0.0 0.0
vt 0.0 0.0
vt 0.0 0.0
vt 0.0 0.0
vt 0.0 0.0
vt 0.0 0.0
vt 0.0 0.0
vt 0.0 0.0
vt 0.0 0.0
vt 0.0 0.0
vt 0.0 0.0
vt 0.0 0.0
vt 0.0 0.0
vt 0.0 0.0
vt 0.0 0.0
vt 0.0 0.0
vt 0.0 0.0
vt 0.0 0.0
vt 0.0 0.0
vt 0.0 0.0
vt 0.0 0.0
vt 0.0 0.0
vt 0.0 0.0
vt 0.0 0.0
vt 0.0 0.0
vt 0.0 0.0
vt 0.0 0.0
vt 0.0 0.0
vt 0.0 0.0
vt 0.0 0.0
vt 0.0 0.0
vt 0.0 0.0
vt 0.0 0.0
vt 0.0 0.0
vt 0.0 0.0
vt 0.0 0.0
vt 0.0 0.0
vt 0.0 0.0
vt 0.0 0.0
vt 0.0 0.0
vt 0.0 0.0
vt 0.0 0.0
vt 0.0 0.0
vt 0.0 0.0
vt 0.0 0.0
vt 0.0 0.0
vt 0.0 0.0
vt 0.0 0.0
vt 0.0 0.0
vt 0.0 0.0
vt 0.0 0.0
vt 0.0 0.0
vt 0.0 0.0
vt 0.0 0.0
vt 0.0 0.0
vt 0.0 0.0
vt 0.0 0.0
vt 0.0 0.0
vt 0.0 0.0
vt 0.0 0.0
vt 0.0 0.0
vt 0.0 0.0
vt 0.0 0.0
vt 0.0 0.0
vt 0.0 0.0
vt 0.0 0.0
vt 0.0 0.0
vt 0.0 0.0
vt 0.0 0.0
vt 0.0 0.0
vt 0.0 0.0
vt 0.0 0.0
vt 0.0 0.0
vt 0.0 0.0
vt 0.0 0.0
vt 0.0 0.0
vt 0.0 0.0
vt 0.0 0.0
vt 0.0 0.0
vt 0.0 0.0
vt 0.0 0.0
vt 0.0 0.0
vt 0.0 0.0
vt 0.0 0.0
vt 0.0 0.0
vt 0.0 0.0
vt 0.0 0.0
vt 0.0 0.0
vt 0.0 0.0
vt 0.0 0.0
vt 0.0 0.0
vt 0.0 0.0
vt 0.0 0.0
vt 0.0 0.0
vt 0.0 0.0
vt 0.0 0.0
vt 0.0 0.0
vt 0.0 0.0
vt 0.0 0.0
vt 0.0 0.0
vt 0.0 0.0
vt 0.0 0.0
vt 0.0 0.0
vt 0.0 0.0
vt 0.0 0.0
vt 0.0 0.0
vt 0.0 0.0
vt 0.0 0.0
vt 0.0 0.0
vt 0.0 0.0
vt 0.0 0.0
vt 0.0 0.0
vt 0.0 0.0
vt 0.0 0.0
vt 0.0 0.0
vt 0.0 0.0
vt 0.0 0.0
vt 0.0 0.0
vt 0.0 0.0
vt 0.0 0.0
vt 0.0 0.0
vt 0.0 0.0
vt 0.0 0.0
vt 0.0 0.0
vt 0.0 0.0
vt 0.0 0.0
vt 0.0 0.0
vt 0.0 0.0
vt 0.0 0.0
vt 0.0 0.0
vt 0.0 0.0
vt 0.0 0.0
vt 0.0 0.0
vt 0.0 0.0
vt 0.0 0.0
vt 0.0 0.0
vt 0.0 0.0
vt 0.0 0.0
vt 0.0 0.0
vt 0.0 0.0
vt 0.0 0.0
vt 0.0 0.0
vt 0.0 0.0
vt 0.0 0.0
vt 0.0 0.0
vt 0.0 0.0
vt 0.0 0.0
vt 0.0 0.0
vt 0.0 0.0
vt 0.0 0.0
vt 0.0 0.0
vt 0.0 0.0
vt 0.0 0.0
vt 0.0 0.0
vt 0.0 0.0
vt 0.0 0.0
vt 0.0 0.0
vt 0.0 0.0
vt 0.0 0.0
vt 0.0 0.0
vt 0.0 0.0
vt 0.0 0.0
vt 0.0 0.0
vt 0.0 0.0
vt 0.0 0.0
vt 0.0 0.0
vt 0.0 0.0
vt 0.0 0.0
vt 0.0 0.0
vt 0.0 0.0
vt 0.0 0.0
vt 0.0 0.0
vt 0.0 0.0
vt 0.0 0.0
vt 0.0 0.0
vt 0.0 0.0
vt 0.0 0.0
vt 0.0 0.0
vt 0.0 0.0
vt 0.0 0.0
vt 0.0 0.0
vt 0.0 0.0
vt 0.0 0.0
vt 0.0 0.0
vt 0.0 0.0
vt 0.0 0.0
vt 0.0 0.0
vt 0.0 0.0
vt 0.0 0.0
vt 0.0 0.0
vt 0.0 0.0
vt 0.0 0.0
vt 0.0 0.0
vt 0.0 0.0
vt 0.0 0.0
vt 0.0 0.0
vt 0.0 0.0
vt 0.0 0.0
vt 0.0 0.0
vt 0.0 0.0
vt 0.0 0.0
vt 0.0 0.0
vt 0.0 0.0
vt 0.0 0.0
vt 0.0 0.0
vt 0.0 0.0
vt 0.0 0.0
vt 0.0 0.0
vt 0.0 0.0
vt 0.0 0.0
vt 0.0 0.0
vt 0.0 0.0
vt 0.0 0.0
vt 0.0 0.0
vt 0.0 0.0
vt 0.0 0.0
vt 0.0 0.0
vt 0.0 0.0
vt 0.0 0.0
vt 0.0 0.0
vt 0.0 0.0
vt 0.0 0.0
vt 0.0 0.0
vt 0.0 0.0
vt 0.0 0.0
vt 0.0 0.0
vt 0.0 0.0
vt 0.0 0.0
vt 0.0 0.0
vt 0.0 0.0
vt 0.0 0.0
vt 0.0 0.0
vt 0.0 0.0
vt 0.0 0.0
vt 0.0 0.0
vt 0.0 0.0
vt 0.0 0.0
vt 0.0 0.0
vt 0.0 0.0
vt 0.0 0.0
vt 0.0 0.0
vt 0.0 0.0
vt 0.0 0.0
vt 0.0 0.0
vt 0.0 0.0
vt 0.0 0.0
vt 0.0 0.0
vt 0.0 0.0
vt 0.0 0.0
vt 0.0 0.0
vt 0.0 0.0
vt 0.0 0.0
vt 0.0 0.0
vt 0.0 0.0
vt 0.0 0.0
vt 0.0 0.0
vt 0.0 0.0
vt 0.0 0.0
vt 0.0 0.0
vt 0.0 0.0
vt 0.0 0.0
vt 0.0 0.0
vt 0.0 0.0
vt 0.0 0.0
vt 0.0 0.0
vt 0.0 0.0
vt 0.0 0.0
vt 0.0 0.0
vt 0.0 0.0
vt 0.0 0.0
vt 0.0 0.0
vt 0.0 0.0
vt 0.0 0.0
vt 0.0 0.0
vt 0.0 0.0
vt 0.0 0.0
vt 0.0 0.0
vt 0.0 0.0
vt 0.0 0.0
vt 0.0 0.0
vt 0.0 0.0
vt 0.0 0.0
vt 0.0 0.0
vt 0.0 0.0
vt 0.0 0.0
vt 0.0 0.0
vt 0.0 0.0
vt 0.0 0.0
vt 0.0 0.0
vt 0.0 0.0
vt 0.0 0.0
vt 0.0 0.0
vt 0.0 0.0
vt 0.0 0.0
vt 0.0 0.0
vt 0.0 0.0
vt 0.0 0.0
vt 0.0 0.0
vt 0.0 0.0
vt 0.0 0.0
vt 0.0 0.0
vt 0.0 0.0
vt 0.0 0.0
vt 0.0 0.0
vt 0.0 0.0
vt 0.0 0.0
vt 0.0 0.0
vt 0.0 0.0
vt 0.0 0.0
vt 0.0 0.0
vt 0.0 0.0
vt 0.0 0.0
vt 0.0 0.0
vt 0.0 0.0
vt 0.0 0.0
vt 0.0 0.0
vt 0.0 0.0
vt 0.0 0.0
vt 0.0 0.0
vt 0.0 0.0
vt 0.0 0.0
vt 0.0 0.0
vt 0.0 0.0
vt 0.0 0.0
vt 0.0 0.0
vt 0.0 0.0
vt 0.0 0.0
vt 0.0 0.0
vt 0.0 0.0
vt 0.0 0.0
vt 0.0 0.0
vt 0.0 0.0
vt 0.0 0.0
vt 0.0 0.0
vt 0.0 0.0
vt 0.0 0.0
vt 0.0 0.0
vt 0.0 0.0
vt 0.0 0.0
vt 0.0 0.0
vt 0.0 0.0
vt 0.0 0.0
vt 0.0 0.0
vt 0.0 0.0
vt 0.0 0.0
vt 0.0 0.0
vt 0.0 0.0
vt 0.0 0.0
vt 0.0 0.0
vt 0.0 0.0
vt 0.0 0.0
vt 0.0 0.0
vt 0.0 0.0
vt 0.0 0.0
vt 0.0 0.0
vt 0.0 0.0
vt 0.0 0.0
vt 0.0 0.0
vt 0.0 0.0
vt 0.0 0.0
vt 0.0 0.0
vt 0.0 0.0
vt 0.0 0.0
vt 0.0 0.0
vt 0.0 0.0
vt 0.0 0.0
vt 0.0 0.0
vt 0.0 0.0
vt 0.0 0.0
vt 0.0 0.0
vt 0.0 0.0
vt 0.0 0.0
vt 0.0 0.0
vt 0.0 0.0
vt 0.0 0.0
vt 0.0 0.0
vt 0.0 0.0
vt 0.0 0.0
vt 0.0 0.0
vt 0.0 0.0
vt 0.0 0.0
vt 0.0 0.0
vt 0.0 0.0
vt 0.0 0.0
vt 0.0 0.0
vt 0.0 0.0
vt 0.0 0.0
vt 0.0 0.0
vt 0.0 0.0
vt 0.0 0.0
vt 0.0 0.0
vt 0.0 0.0
vt 0.0 0.0
vt 0.0 0.0
vt 0.0 0.0
vt 0.0 0.0
vt 0.0 0.0
vt 0.0 0.0
vt 0.0 0.0
vn -1.0 0.0 0.0
vn -0.99817556 -0.060378496 0.0
vn -0.99270886 -0.12053668 0.0
vn -0.9836199 -0.18025504 0.0
vn -0.97094184 -0.23931566 0.0
vn -0.95472085 -0.29750305 0.0
vn -0.9350163 -0.35460493 0.0
vn -0.91189986 -0.41041282 0.0
vn -0.885456 -0.46472317 0.0
vn -0.8557813 -0.51733786 0.0
vn -0.82298386 -0.56806475 0.0
vn -0.78718346 -0.6167189 0.0
vn -0.7485108 -0.66312265 0.0
vn -0.7071068 -0.7071068 0.0
vn -0.66312265 -0.7485108 0.0
vn -0.6167189 -0.78718346 0.0
vn -0.56806475 -0.82298386 0.0
vn -0.51733786 -0.8557813 0.0
vn -0.46472317 -0.885456 0.0
vn -0.41041282 -0.91189986 0.0
vn -0.35460493 -0.9350163 0.0
vn -0.29750305 -0.95472085 0.0
vn -0.23931566 -0.97094184 0.0
vn -0.18025504 -0.9836199 0.0
vn -0.12053668 -0.99270886 0.0
vn -0.060378496 -0.99817556 0.0
vn 1.6081226E-16 -1.0 0.0
vn 0.060378496 -0.99817556 0.0
vn 0.12053668 -0.99270886 0.0
vn 0.18025504 -0.9836199 0.0
vn 0.23931566 -0.97094184 0.0
vn 0.29750305 -0.95472085 0.0
vn 0.35460493 -0.9350163 0.0
vn 0.41041282 -0.91189986 0.0
vn 0.46472317 -0.885456 0.0
vn 0.51733786 -0.8557813 0.0
vn 0.56806475 -0.82298386 0.0
vn 0.6167189 -0.78718346 0.0
vn 0.66312265 -0.7485108 0.0
vn 0.7071068 -0.7071068 0.0
vn 0.7485108 -0.66312265 0.0
vn 0.78718346 -0.6167189 0.0
vn 0.82298386 -0.56806475 0.0
vn 0.8557813 -0.51733786 0.0
vn 0.885456 -0.46472317 0.0
vn 0.91189986 -0.41041282 0.0
vn 0.9350163 -0.35460493 0.0
vn 0.95472085 -0.29750305 0.0
vn 0.97094184 -0.23931566 0.0
vn 0.9836199 -0.18025504 0.0
vn 0.99270886 -0.12053668 0.0
vn 0.99817556 -0.060378496 0.0
vn 1.0 3.2162452E-16 0.0
vn 0.99817556 0.060378496 0.0
vn 0.99270886 0.12053668 0.0
vn 0.9836199 0.18025504 0.0
vn 0.97094184 0.23931566 0.0
vn 0.95472085 0.29750305 0.0
vn 0.9350163 0.35460493 0.0
vn 0.91189986 0.41041282 0.0
vn 0.885456 0.46472317 0.0
vn 0.8557813 0.51733786 0.0
vn 0.82298386 0.56806475 0.0
vn 0.78718346 0.6167189 0.0
vn 0.7485108 0.66312265 0.0
vn 0.7071068 0.7071068 0.0
vn 0.66312265 0.7485108 0.0
vn 0.6167189 0.78718346 0.0
vn 0.56806475 0.82298386 0.0
vn 0.51733786 0.8557813 0.0
vn 0.46472317 0.885456 0.0
vn 0.41041282 0.91189986 0.0
vn 0.35460493 0.9350163 0.0
vn 0.29750305 0.95472085 0.0
vn 0.23931566 0.97094184 0.0
vn 0.18025504 0.9836199 0.0
vn 0.12053668 0.99270886 0.0
vn 0.060378496 0.99817556 0.0
vn 1.8369701E-16 1.0 0.0
vn -0.060378496 0.99817556 0.0
vn -0.12053668 0.99270886 0.0
vn -0.18025504 0.9836199 0.0
vn -0.23931566 0.97094184 0.0
vn -0.29750305 0.95472085 0.0
vn -0.35460493 0.9350163 0.0
vn -0.41041282 0.91189986 0.0
vn -0.46472317 0.885456 0.0
vn -0.51733786 0.8557813 0.0
vn -0.56806475 0.82298386 0.0
vn -0.6167189 0.78718346 0.0
vn -0.66312265 0.7485108 0.0
vn -0.7071068 0.7071068 0.0
vn -0.7485108 0.66312265 0.0
vn -0.78718346 0.6167189 0.0
vn -0.82298386 0.56806475 0.0
vn -0.8557813 0.51733786 0.0
vn -0.885456 0.46472317 0.0
vn -0.91189986 0.41041282 0.0
vn -0.9350163 0.35460493 0.0
vn -0.95472085 0.29750305 0.0
vn -0.97094184 0.23931566 0.0
vn -0.9836199 0.18025504 0.0
vn -0.99270886 0.12053668 0.0
vn -0.99817556 0.060378496 0.0
vn -1.0 0.0 0.0
vn -0.99817556 -0.060378496 0.0
vn -0.99270886 -0.12053668 0.0
vn -0.9836199 -0.18025504 0.0
vn -0.97094184 -0.23931566 0.0
vn -0.95472085 -0.29750305 0.0
vn -0.9350163 -0.35460493 0.0
vn -0.91189986 -0.41041282 0.0
vn -0.885456 -0.46472317 0.0
vn -0.8557813 -0.51733786 0.0
vn -0.82298386 -0.56806475 0.0
vn -0.78718346 -0.6167189 0.0
vn -0.7485108 -0.66312265 0.0
vn -0.7071068 -0.7071068 0.0
vn -0.66312265 -0.7485108 0.0
vn -0.6167189 -0.78718346 0.0
vn -0.56806475 -0.82298386 0.0
vn -0.51733786 -0.8557813 0.0
vn -0.46472317 -0.885456 0.0
vn -0.41041282 -0.91189986 0.0
vn -0.35460493 -0.9350163 0.0
vn -0.29750305 -0.95472085 0.0
vn -0.23931566 -0.97094184 0.0
vn -0.18025504 -0.9836199 0.0
vn -0.12053668 -0.99270886 0.0
vn -0.060378496 -0.99817556 0.0
vn 1.6081226E-16 -1.0 0.0
vn 0.060378496 -0.99817556 0.0
vn 0.12053668 -0.99270886 0.0
vn 0.18025504 -0.9836199 0.0
vn 0.23931566 -0.97094184 0.0
vn 0.29750305 -0.95472085 0.0
vn 0.35460493 -0.9350163 0.0
vn 0.41041282 -0.91189986 0.0
vn 0.46472317 -0.885456 0.0
vn 0.51733786 -0.8557813 0.0
vn 0.56806475 -0.82298386 0.0
vn 0.6167189 -0.78718346 0.0
vn 0.66312265 -0.7485108 0.0
vn 0.7071068 -0.7071068 0.0
vn 0.7485108 -0.66312265 0.0
vn 0.78718346 -0.6167189 0.0
vn 0.82298386 -0.56806475 0.0
vn 0.8557813 -0.51733786 0.0
vn 0.885456 -0.46472317 0.0
vn 0.91189986 -0.41041282 0.0
vn 0.9350163 -0.35460493 0.0
vn 0.95472085 -0.29750305 0.0
vn 0.97094184 -0.23931566 0.0
vn 0.9836199 -0.18025504 0.0
vn 0.99270886 -0.12053668 0.0
vn 0.99817556 -0.060378496 0.0
vn 1.0 3.2162452E-16 0.0
vn 0.99817556 0.060378496 0.0
vn 0.99270886 0.12053668 0.0
vn 0.9836199 0.18025504 0.0
vn 0.97094184 0.23931566 0.0
vn 0.95472085 0.29750305 0.0
vn 0.9350163 0.35460493 0.0
vn 0.91189986 0.41041282 0.0
vn 0.885456 0.46472317 0.0
vn 0.8557813 0.51733786 0.0
vn 0.82298386 0.56806475 0.0
vn 0.78718346 0.6167189 0.0
vn 0.7485108 0.66312265 0.0
vn 0.7071068 0.7071068 0.0
vn 0.66312265 0.7485108 0.0
vn 0.6167189 0.78718346 0.0
vn 0.56806475 0.82298386 0.0
vn 0.51733786 0.8557813 0.0
vn 0.46472317 0.885456 0.0
vn 0.41041282 0.91189986 0.0
vn 0.35460493 0.9350163 0.0
vn 0.29750305 0.95472085 0.0
vn 0.23931566 0.97094184 0.0
vn 0.18025504 0.9836199 0.0
vn 0.12053668 0.99270886 0.0
vn 0.060378496 0.99817556 0.0
vn 1.8369701E-16 1.0 0.0
vn -0.060378496 0.99817556 0.0
vn -0.12053668 0.99270886 0.0
vn -0.18025504 0.9836199 0.0
vn -0.23931566 0.97094184 0.0
vn -0.29750305 0.95472085 0.0
vn -0.35460493 0.9350163 0.0
vn -0.41041282 0.91189986 0.0
vn -0.46472317 0.885456 0.0
vn -0.51733786 0.8557813 0.0
vn -0.56806475 0.82298386 0.0
vn -0.6167189 0.78718346 0.0
vn -0.66312265 0.7485108 0.0
vn -0.7071068 0.7071068 0.0
vn -0.7485108 0.66312265 0.0
vn -0.78718346 0.6167189 0.0
vn -0.82298386 0.56806475 0.0
vn -0.8557813 0.51733786 0.0
vn -0.885456 0.46472317 0.0
vn -0.91189986 0.41041282 0.0
vn -0.9350163 0.35460493 0.0
vn -0.95472085 0.29750305 0.0
vn -0.97094184 0.23931566 0.0
vn -0.9836199 0.18025504 0.0
vn -0.99270886 0.12053668 0.0
vn -0.99817556 0.060378496 0.0
vn 1.0 0.0 0.0
vn 0.99817556 0.060378496 0.0
vn 0.99270886 0.12053668 0.0
vn 0.9836199 0.18025504 0.0
vn 0.97094184 0.23931566 0.0
vn 0.95472085 0.29750305 0.0
vn 0.9350163 0.35460493 0.0
vn 0.91189986 0.41041282 0.0
vn 0.885456 0.46472317 0.0
vn 0.8557813 0.51733786 0.0
vn 0.82298386 0.56806475 0.0
vn 0.78718346 0.6167189 0.0
vn 0.7485108 0.66312265 0.0
vn 0.7071068 0.7071068 0.0
vn 0.66312265 0.7485108 0.0
vn 0.6167189 0.78718346 0.0
vn 0.56806475 0.82298386 0.0
vn 0.51733786 0.8557813 0.0
vn 0.46472317 0.885456 0.0
vn 0.41041282 0.91189986 0.0
vn 0.35460493 0.9350163 0.0
vn 0.29750305 0.95472085 0.0
vn 0.23931566 0.97094184 0.0
vn 0.18025504 0.9836199 0.0
vn 0.12053668 0.99270886 0.0
vn 0.060378496 0.99817556 0.0
vn -1.6081226E-16 1.0 0.0
vn -0.060378496 0.99817556 0.0
vn -0.12053668 0.99270886 0.0
vn -0.18025504 0.9836199 0.0
vn -0.23931566 0.97094184 0.0
vn -0.29750305 0.95472085 0.0
vn -0.35460493 0.9350163 0.0
vn -0.41041282 0.91189986 0.0
vn -0.46472317 0.885456 0.0
vn -0.51733786 0.8557813 0.0
vn -0.56806475 0.82298386 0.0
vn -0.6167189 0.78718346 0.0
vn -0.66312265 0.7485108 0.0
vn -0.7071068 0.7071068 0.0
vn -0.7485108 0.66312265 0.0
vn -0.78718346 0.6167189 0.0
vn -0.82298386 0.56806475 0.0
vn -0.8557813 0.51733786 0.0
vn -0.885456 0.46472317 0.0
vn -0.91189986 0.41041282 0.0
vn -0.9350163 0.35460493 0.0
vn -0.95472085 0.29750305 0.0
vn -0.97094184 0.23931566 0.0
vn -0.9836199 0.18025504 0.0
vn -0.99270886 0.12053668 0.0
vn -0.99817556 0.060378496 0.0
vn -1.0 -3.2162452E-16 0.0
vn -0.99817556 -0.060378496 0.0
vn -0.99270886 -0.12053668 0.0
vn -0.9836199 -0.18025504 0.0
vn -0.97094184 -0.23931566 0.0
vn -0.95472085 -0.29750305 0.0
vn -0.9350163 -0.35460493 0.0
vn -0.91189986 -0.41041282 0.0
vn -0.885456 -0.46472317 0.0
vn -0.8557813 -0.51733786 0.0
vn -0.82298386 -0.56806475 0.0
vn -0.78718346 -0.6167189 0.0
vn -0.7485108 -0.66312265 0.0
vn -0.7071068 -0.7071068 0.0
vn -0.66312265 -0.7485108 0.0
vn -0.6167189 -0.78718346 0.0
vn -0.56806475 -0.82298386 0.0
vn -0.51733786 -0.8557813 0.0
vn -0.46472317 -0.885456 0.0
vn -0.41041282 -0.91189986 0.0
vn -0.35460493 -0.9350163 0.0
vn -0.29750305 -0.95472085 0.0
vn -0.23931566 -0.97094184 0.0
vn -0.18025504 -0.9836199 0.0
vn -0.12053668 -0.99270886 0.0
vn -0.060378496 -0.99817556 0.0
vn -1.8369701E-16 -1.0 0.0
vn 0.060378496 -0.99817556 0.0
vn 0.12053668 -0.99270886 0.0
vn 0.18025504 -0.9836199 0.0
vn 0.23931566 -0.97094184 0.0
vn 0.29750305 -0.95472085 0.0
vn 0.35460493 -0.9350163 0.0
vn 0.41041282 -0.91189986 0.0
vn 0.46472317 -0.885456 0.0
vn 0.51733786 -0.8557813 0.0
vn 0.56806475 -0.82298386 0.0
vn 0.6167189 -0.78718346 0.0
vn 0.66312265 -0.7485108 0.0
vn 0.7071068 -0.7071068 0.0
vn 0.7485108 -0.66312265 0.0
vn 0.78718346 -0.6167189 0.0
vn 0.82298386 -0.56806475 0.0
vn 0.8557813 -0.51733786 0.0
vn 0.885456 -0.46472317 0.0
vn 0.91189986 -0.41041282 0.0
vn 0.9350163 -0.35460493 0.0
vn 0.95472085 -0.29750305 0.0
vn 0.97094184 -0.23931566 0.0
vn 0.9836199 -0.18025504 0.0
vn 0.99270886 -0.12053668 0.0
vn 0.99817556 -0.060378496 0.0
vn 1.0 0.0 0.0
vn 0.99817556 0.060378496 0.0
vn 0.99270886 0.12053668 0.0
vn 0.9836199 0.18025504 0.0
vn 0.97094184 0.23931566 0.0
vn 0.95472085 0.29750305 0.0
vn 0.9350163 0.35460493 0.0
vn 0.91189986 0.41041282 0.0
vn 0.885456 0.46472317 0.0
vn 0.8557813 0.51733786 0.0
vn 0.82298386 0.56806475 0.0
vn 0.78718346 0.6167189 0.0
vn 0.7485108 0.66312265 0.0
vn 0.7071068 0.7071068 0.0
vn 0.66312265 0.7485108 0.0
vn 0.6167189 0.78718346 0.0
vn 0.56806475 0.82298386 0.0
vn 0.51733786 0.8557813 0.0
vn 0.46472317 0.885456 0.0
vn 0.41041282 0.91189986 0.0
vn 0.35460493 0.9350163 0.0
vn 0.29750305 0.95472085 0.0
vn 0.23931566 0.97094184 0.0
vn 0.18025504 0.9836199 0.0
vn 0.12053668 0.99270886 0.0
vn 0.060378496 0.99817556 0.0
vn -1.6081226E-16 1.0 0.0
vn -0.060378496 0.99817556 0.0
vn -0.12053668 0.99270886 0.0
vn -0.18025504 0.9836199 0.0
vn -0.23931566 0.97094184 0.0
vn -0.29750305 0.95472085 0.0
vn -0.35460493 0.9350163 0.0
vn -0.41041282 0.91189986 0.0
vn -0.46472317 0.885456 0.0
vn -0.51733786 0.8557813 0.0
vn -0.56806475 0.82298386 0.0
vn -0.6167189 0.78718346 0.0
vn -0.66312265 0.7485108 0.0
vn -0.7071068 0.7071068 0.0
vn -0.7485108 0.66312265 0.0
vn -0.78718346 0.6167189 0.0
vn -0.82298386 0.56806475 0.0
vn -0.8557813 0.51733786 0.0
vn -0.885456 0.46472317 0.0
vn -0.91189986 0.41041282 0.0
vn -0.9350163 0.35460493 0.0
vn -0.95472085 0.29750305 0.0
vn -0.97094184 0.23931566 0.0
vn -0.9836199 0.18025504 0.0
vn -0.99270886 0.12053668 0.0
vn -0.99817556 0.060378496 0.0
vn -1.0 -3.2162452E-16 0.0
vn -0.99817556 -0.060378496 0.0
vn -0.99270886 -0.12053668 0.0
vn -0.9836199 -0.18025504 0.0
vn -0.97094184 -0.23931566 0.0
vn -0.95472085 -0.29750305 0.0
vn -0.9350163 -0.35460493 0.0
vn -0.91189986 -0.41041282 0.0
vn -0.885456 -0.46472317 0.0
vn -0.8557813 -0.51733786 0.0
vn -0.82298386 -0.56806475 0.0
vn -0.78718346 -0.6167189 0.0
vn -0.7485108 -0.66312265 0.0
vn -0.7071068 -0.7071068 0.0
vn -0.66312265 -0.7485108 0.0
vn -0.6167189 -0.78718346 0.0
vn -0.56806475 -0.82298386 0.0
vn -0.51733786 -0.8557813 0.0
vn -0.46472317 -0.885456 0.0
vn -0.41041282 -0.91189986 0.0
vn -0.35460493 -0.9350163 0.0
vn -0.29750305 -0.95472085 0.0
vn -0.23931566 -0.97094184 0.0
vn -0.18025504 -0.9836199 0.0
vn -0.12053668 -0.99270886 0.0
vn -0.060378496 -0.99817556 0.0
vn -1.8369701E-16 -1.0 0.0
vn 0.060378496 -0.99817556 0.0
vn 0.12053668 -0.99270886 0.0
vn 0.18025504 -0.9836199 0.0
vn 0.23931566 -0.97094184 0.0
vn 0.29750305 -0.95472085 0.0
vn 0.35460493 -0.9350163 0.0
vn 0.41041282 -0.91189986 0.0
vn 0.46472317 -0.885456 0.0
vn 0.51733786 -0.8557813 0.0
vn 0.56806475 -0.82298386 0.0
vn 0.6167189 -0.78718346 0.0
vn 0.66312265 -0.7485108 0.0
vn 0.7071068 -0.7071068 0.0
vn 0.7485108 -0.66312265 0.0
vn 0.78718346 -0.6167189 0.0
vn 0.82298386 -0.56806475 0.0
vn 0.8557813 -0.51733786 0.0
vn 0.885456 -0.46472317 0.0
vn 0.91189986 -0.41041282 0.0
vn 0.9350163 -0.35460493 0.0
vn 0.95472085 -0.29750305 0.0
vn 0.97094184 -0.23931566 0.0
vn 0.9836199 -0.18025504 0.0
vn 0.99270886 -0.12053668 0.0
vn 0.99817556 -0.060378496 0.0
vn 0.0 0.0 1.0
vn 0.0 0.0 -1.0
g 1_Ana Gövde 
f 106/107/106 105/106/105 1/1/1
f 1/1/1 2/2/2 106/107/106
f 107/108/107 106/107/106 3/3/3
f 2/2/2 3/3/3 106/107/106
f 108/109/108 107/108/107 3/3/3
f 3/3/3 4/4/4 108/109/108
f 109/110/109 108/109/108 5/5/5
f 4/4/4 5/5/5 108/109/108
f 110/111/110 109/110/109 6/6/6
f 5/5/5 6/6/6 109/110/109
f 110/111/110 6/6/6 111/112/111
f 7/7/7 111/112/111 6/6/6
f 111/112/111 7/7/7 112/113/112
f 8/8/8 112/113/112 7/7/7
f 113/114/113 112/113/112 8/8/8
f 8/8/8 9/9/9 113/114/113
f 114/115/114 113/114/113 10/10/10
f 9/9/9 10/10/10 113/114/113
f 115/116/115 114/115/114 11/11/11
f 10/10/10 11/11/11 114/115/114
f 116/117/116 115/116/115 11/11/11
f 11/11/11 12/12/12 116/117/116
f 117/118/117 116/117/116 13/13/13
f 12/12/12 13/13/13 116/117/116
f 118/119/118 117/118/117 13/13/13
f 13/13/13 14/14/14 118/119/118
f 119/120/119 118/119/118 15/15/15
f 14/14/14 15/15/15 118/119/118
f 120/121/120 119/120/119 16/16/16
f 15/15/15 16/16/16 119/120/119
f 121/122/121 120/121/120 16/16/16
f 16/16/16 17/17/17 121/122/121
f 121/122/121 17/17/17 122/123/122
f 18/18/18 122/123/122 17/17/17
f 123/124/123 122/123/122 19/19/19
f 18/18/18 19/19/19 122/123/122
f 124/125/124 123/124/123 19/19/19
f 19/19/19 20/20/20 124/125/124
f 124/125/124 20/20/20 125/126/125
f 21/21/21 125/126/125 20/20/20
f 126/127/126 125/126/125 21/21/21
f 21/21/21 22/22/22 126/127/126
f 127/128/127 126/127/126 23/23/23
f 22/22/22 23/23/23 126/127/126
f 128/129/128 127/128/127 23/23/23
f 23/23/23 24/24/24 128/129/128
f 128/129/128 24/24/24 129/130/129
f 25/25/25 129/130/129 24/24/24
f 130/131/130 129/130/129 25/25/25
f 25/25/25 26/26/26 130/131/130
f 131/132/131 130/131/130 26/26/26
f 26/26/26 27/27/27 131/132/131
f 132/133/132 131/132/131 27/27/27
f 27/27/27 28/28/28 132/133/132
f 133/134/133 132/133/132 28/28/28
f 28/28/28 29/29/29 133/134/133
f 133/134/133 29/29/29 134/135/134
f 30/30/30 134/135/134 29/29/29
f 135/136/135 134/135/134 30/30/30
f 30/30/30 31/31/31 135/136/135
f 136/137/136 135/136/135 32/32/32
f 31/31/31 32/32/32 135/136/135
f 137/138/137 136/137/136 32/32/32
f 32/32/32 33/33/33 137/138/137
f 137/138/137 33/33/33 138/139/138
f 34/34/34 138/139/138 33/33/33
f 139/140/139 138/139/138 34/34/34
f 34/34/34 35/35/35 139/140/139
f 140/141/140 139/140/139 36/36/36
f 35/35/35 36/36/36 139/140/139
f 140/141/140 36/36/36 141/142/141
f 37/37/37 141/142/141 36/36/36
f 142/143/142 141/142/141 37/37/37
f 37/37/37 38/38/38 142/143/142
f 143/144/143 142/143/142 39/39/39
f 38/38/38 39/39/39 142/143/142
f 144/145/144 143/144/143 40/40/40
f 39/39/39 40/40/40 143/144/143
f 145/146/145 144/145/144 40/40/40
f 40/40/40 41/41/41 145/146/145
f 146/147/146 145/146/145 42/42/42
f 41/41/41 42/42/42 145/146/145
f 147/148/147 146/147/146 42/42/42
f 42/42/42 43/43/43 147/148/147
f 148/149/148 147/148/147 44/44/44
f 43/43/43 44/44/44 147/148/147
f 149/150/149 148/149/148 45/45/45
f 44/44/44 45/45/45 148/149/148
f 150/151/150 149/150/149 45/45/45
f 45/45/45 46/46/46 150/151/150
f 150/151/150 46/46/46 151/152/151
f 47/47/47 151/152/151 46/46/46
f 151/152/151 47/47/47 152/153/152
f 48/48/48 152/153/152 47/47/47
f 153/154/153 152/153/152 49/49/49
f 48/48/48 49/49/49 152/153/152
f 154/155/154 153/154/153 50/50/50
f 49/49/49 50/50/50 153/154/153
f 155/156/155 154/155/154 50/50/50
f 50/50/50 51/51/51 155/156/155
f 156/157/156 155/156/155 52/52/52
f 51/51/51 52/52/52 155/156/155
f 157/158/157 156/157/156 52/52/52
f 52/52/52 53/53/53 157/158/157
f 158/159/158 157/158/157 53/53/53
f 53/53/53 54/54/54 158/159/158
f 159/160/159 158/159/158 55/55/55
f 54/54/54 55/55/55 158/159/158
f 160/161/160 159/160/159 55/55/55
f 55/55/55 56/56/56 160/161/160
f 161/162/161 160/161/160 57/57/57
f 56/56/56 57/57/57 160/161/160
f 162/163/162 161/162/161 58/58/58
f 57/57/57 58/58/58 161/162/161
f 162/163/162 58/58/58 163/164/163
f 59/59/59 163/164/163 58/58/58
f 163/164/163 59/59/59 164/165/164
f 60/60/60 164/165/164 59/59/59
f 165/166/165 164/165/164 60/60/60
f 60/60/60 61/61/61 165/166/165
f 166/167/166 165/166/165 62/62/62
f 61/61/61 62/62/62 165/166/165
f 167/168/167 166/167/166 63/63/63
f 62/62/62 63/63/63 166/167/166
f 168/169/168 167/168/167 63/63/63
f 63/63/63 64/64/64 168/169/168
f 169/170/169 168/169/168 65/65/65
f 64/64/64 65/65/65 168/169/168
f 170/171/170 169/170/169 65/65/65
f 65/65/65 66/66/66 170/171/170
f 171/172/171 170/171/170 67/67/67
f 66/66/66 67/67/67 170/171/170
f 172/173/172 171/172/171 68/68/68
f 67/67/67 68/68/68 171/172/171
f 173/174/173 172/173/172 68/68/68
f 68/68/68 69/69/69 173/174/173
f 173/174/173 69/69/69 174/175/174
f 70/70/70 174/175/174 69/69/69
f 175/176/175 174/175/174 71/71/71
f 70/70/70 71/71/71 174/175/174
f 176/177/176 175/176/175 71/71/71
f 71/71/71 72/72/72 176/177/176
f 176/177/176 72/72/72 177/178/177
f 73/73/73 177/178/177 72/72/72
f 178/179/178 177/178/177 73/73/73
f 73/73/73 74/74/74 178/179/178
f 179/180/179 178/179/178 75/75/75
f 74/74/74 75/75/75 178/179/178
f 180/181/180 179/180/179 75/75/75
f 75/75/75 76/76/76 180/181/180
f 180/181/180 76/76/76 181/182/181
f 77/77/77 181/182/181 76/76/76
f 182/183/182 181/182/181 77/77/77
f 77/77/77 78/78/78 182/183/182
f 183/184/183 182/183/182 78/78/78
f 78/78/78 79/79/79 183/184/183
f 184/185/184 183/184/183 79/79/79
f 79/79/79 80/80/80 184/185/184
f 185/186/185 184/185/184 80/80/80
f 80/80/80 81/81/81 185/186/185
f 185/186/185 81/81/81 186/187/186
f 82/82/82 186/187/186 81/81/81
f 187/188/187 186/187/186 82/82/82
f 82/82/82 83/83/83 187/188/187
f 188/189/188 187/188/187 84/84/84
f 83/83/83 84/84/84 187/188/187
f 189/190/189 188/189/188 84/84/84
f 84/84/84 85/85/85 189/190/189
f 189/190/189 85/85/85 190/191/190
f 86/86/86 190/191/190 85/85/85
f 191/192/191 190/191/190 86/86/86
f 86/86/86 87/87/87 191/192/191
f 192/193/192 191/192/191 88/88/88
f 87/87/87 88/88/88 191/192/191
f 192/193/192 88/88/88 193/194/193
f 89/89/89 193/194/193 88/88/88
f 194/195/194 193/194/193 89/89/89
f 89/89/89 90/90/90 194/195/194
f 195/196/195 194/195/194 91/91/91
f 90/90/90 91/91/91 194/195/194
f 196/197/196 195/196/195 92/92/92
f 91/91/91 92/92/92 195/196/195
f 197/198/197 196/197/196 92/92/92
f 92/92/92 93/93/93 197/198/197
f 198/199/198 197/198/197 94/94/94
f 93/93/93 94/94/94 197/198/197
f 199/200/199 198/199/198 94/94/94
f 94/94/94 95/95/95 199/200/199
f 200/201/200 199/200/199 96/96/96
f 95/95/95 96/96/96 199/200/199
f 201/202/201 200/201/200 97/97/97
f 96/96/96 97/97/97 200/201/200
f 202/203/202 201/202/201 97/97/97
f 97/97/97 98/98/98 202/203/202
f 202/203/202 98/98/98 203/204/203
f 99/99/99 203/204/203 98/98/98
f 203/204/203 99/99/99 204/205/204
f 100/100/100 204/205/204 99/99/99
f 205/206/205 204/205/204 101/101/101
f 100/100/100 101/101/101 204/205/204
f 206/207/206 205/206/205 102/102/102
f 101/101/101 102/102/102 205/206/205
f 207/208/207 206/207/206 102/102/102
f 102/102/102 103/103/103 207/208/207
f 208/209/208 207/208/207 104/104/104
f 103/103/103 104/104/104 207/208/207
f 105/210/105 208/209/208 104/104/104
f 104/104/104 1/105/1 105/210/105
f 313/316/313 314/317/314 210/212/210
f 210/212/210 209/211/209 313/316/313
f 314/317/314 315/318/315 211/213/211
f 211/213/211 210/212/210 314/317/314
f 316/319/316 212/214/212 315/318/315
f 211/213/211 315/318/315 212/214/212
f 317/320/317 213/215/213 316/319/316
f 212/214/212 316/319/316 213/215/213
f 317/320/317 318/321/318 214/216/214
f 214/216/214 213/215/213 317/320/317
f 318/321/318 319/322/319 214/216/214
f 215/217/215 214/216/214 319/322/319
f 320/323/320 216/218/216 319/322/319
f 215/217/215 319/322/319 216/218/216
f 320/323/320 321/324/321 217/219/217
f 217/219/217 216/218/216 320/323/320
f 322/325/322 218/220/218 321/324/321
f 217/219/217 321/324/321 218/220/218
f 323/326/323 219/221/219 322/325/322
f 218/220/218 322/325/322 219/221/219
f 323/326/323 324/327/324 219/221/219
f 220/222/220 219/221/219 324/327/324
f 325/328/325 221/223/221 324/327/324
f 220/222/220 324/327/324 221/223/221
f 325/328/325 326/329/326 222/224/222
f 222/224/222 221/223/221 325/328/325
f 326/329/326 327/330/327 223/225/223
f 223/225/223 222/224/222 326/329/326
f 327/330/327 328/331/328 224/226/224
f 224/226/224 223/225/223 327/330/327
f 328/331/328 329/332/329 224/226/224
f 225/227/225 224/226/224 329/332/329
f 329/332/329 330/333/330 226/228/226
f 226/228/226 225/227/225 329/332/329
f 330/333/330 331/334/331 227/229/227
f 227/229/227 226/228/226 330/333/330
f 331/334/331 332/335/332 228/230/228
f 228/230/228 227/229/227 331/334/331
f 332/335/332 333/336/333 229/231/229
f 229/231/229 228/230/228 332/335/332
f 333/336/333 334/337/334 230/232/230
f 230/232/230 229/231/229 333/336/333
f 334/337/334 335/338/335 231/233/231
f 231/233/231 230/232/230 334/337/334
f 335/338/335 336/339/336 231/233/231
f 232/234/232 231/233/231 336/339/336
f 336/339/336 337/340/337 232/234/232
f 233/235/233 232/234/232 337/340/337
f 337/340/337 338/341/338 233/235/233
f 234/236/234 233/235/233 338/341/338
f 338/341/338 339/342/339 234/236/234
f 235/237/235 234/236/234 339/342/339
f 339/342/339 340/343/340 236/238/236
f 236/238/236 235/237/235 339/342/339
f 340/343/340 341/344/341 236/238/236
f 237/239/237 236/238/236 341/344/341
f 341/344/341 342/345/342 237/239/237
f 238/240/238 237/239/237 342/345/342
f 342/345/342 343/346/343 238/240/238
f 239/241/239 238/240/238 343/346/343
f 343/346/343 344/347/344 240/242/240
f 240/242/240 239/241/239 343/346/343
f 344/347/344 345/348/345 241/243/241
f 241/243/241 240/242/240 344/347/344
f 345/348/345 346/349/346 242/244/242
f 242/244/242 241/243/241 345/348/345
f 346/349/346 347/350/347 243/245/243
f 243/245/243 242/244/242 346/349/346
f 347/350/347 348/351/348 244/246/244
f 244/246/244 243/245/243 347/350/347
f 348/351/348 349/352/349 245/247/245
f 245/247/245 244/246/244 348/351/348
f 349/352/349 350/353/350 245/247/245
f 246/248/246 245/247/245 350/353/350
f 350/353/350 351/354/351 247/249/247
f 247/249/247 246/248/246 350/353/350
f 351/354/351 352/355/352 248/250/248
f 248/250/248 247/249/247 351/354/351
f 352/355/352 353/356/353 249/251/249
f 249/251/249 248/250/248 352/355/352
f 354/357/354 250/252/250 353/356/353
f 249/251/249 353/356/353 250/252/250
f 354/357/354 355/358/355 250/252/250
f 251/253/251 250/252/250 355/358/355
f 356/359/356 252/254/252 355/358/355
f 251/253/251 355/358/355 252/254/252
f 357/360/357 253/255/253 356/359/356
f 252/254/252 356/359/356 253/255/253
f 357/360/357 358/361/358 254/256/254
f 254/256/254 253/255/253 357/360/357
f 359/362/359 255/257/255 358/361/358
f 254/256/254 358/361/358 255/257/255
f 359/362/359 360/363/360 255/257/255
f 256/258/256 255/257/255 360/363/360
f 360/363/360 361/364/361 257/259/257
f 257/259/257 256/258/256 360/363/360
f 362/365/362 258/260/258 361/364/361
f 257/259/257 361/364/361 258/260/258
f 363/366/363 259/261/259 362/365/362
f 258/260/258 362/365/362 259/261/259
f 363/366/363 364/367/364 260/262/260
f 260/262/260 259/261/259 363/366/363
f 364/367/364 365/368/365 260/262/260
f 261/263/261 260/262/260 365/368/365
f 365/368/365 366/369/366 262/264/262
f 262/264/262 261/263/261 365/368/365
f 366/369/366 367/370/367 263/265/263
f 263/265/263 262/264/262 366/369/366
f 368/371/368 264/266/264 367/370/367
f 263/265/263 367/370/367 264/266/264
f 369/372/369 265/267/265 368/371/368
f 264/266/264 368/371/368 265/267/265
f 369/372/369 370/373/370 266/268/266
f 266/268/266 265/267/265 369/372/369
f 370/373/370 371/374/371 266/268/266
f 267/269/267 266/268/266 371/374/371
f 372/375/372 268/270/268 371/374/371
f 267/269/267 371/374/371 268/270/268
f 372/375/372 373/376/373 269/271/269
f 269/271/269 268/270/268 372/375/372
f 374/377/374 270/272/270 373/376/373
f 269/271/269 373/376/373 270/272/270
f 375/378/375 271/273/271 374/377/374
f 270/272/270 374/377/374 271/273/271
f 375/378/375 376/379/376 271/273/271
f 272/274/272 271/273/271 376/379/376
f 377/380/377 273/275/273 376/379/376
f 272/274/272 376/379/376 273/275/273
f 377/380/377 378/381/378 274/276/274
f 274/276/274 273/275/273 377/380/377
f 378/381/378 379/382/379 275/277/275
f 275/277/275 274/276/274 378/381/378
f 379/382/379 380/383/380 276/278/276
f 276/278/276 275/277/275 379/382/379
f 380/383/380 381/384/381 276/278/276
f 277/279/277 276/278/276 381/384/381
f 381/384/381 382/385/382 278/280/278
f 278/280/278 277/279/277 381/384/381
f 382/385/382 383/386/383 279/281/279
f 279/281/279 278/280/278 382/385/382
f 383/386/383 384/387/384 280/282/280
f 280/282/280 279/281/279 383/386/383
f 384/387/384 385/388/385 281/283/281
f 281/283/281 280/282/280 384/387/384
f 385/388/385 386/389/386 282/284/282
f 282/284/282 281/283/281 385/388/385
f 386/389/386 387/390/387 283/285/283
f 283/285/283 282/284/282 386/389/386
f 387/390/387 388/391/388 283/285/283
f 284/286/284 283/285/283 388/391/388
f 388/391/388 389/392/389 284/286/284
f 285/287/285 284/286/284 389/392/389
f 389/392/389 390/393/390 285/287/285
f 286/288/286 285/287/285 390/393/390
f 390/393/390 391/394/391 287/289/287
f 287/289/287 286/288/286 390/393/390
f 391/394/391 392/395/392 288/290/288
f 288/290/288 287/289/287 391/394/391
f 392/395/392 393/396/393 288/290/288
f 289/291/289 288/290/288 393/396/393
f 393/396/393 394/397/394 289/291/289
f 290/292/290 289/291/289 394/397/394
f 394/397/394 395/398/395 290/292/290
f 291/293/291 290/292/290 395/398/395
f 395/398/395 396/399/396 292/294/292
f 292/294/292 291/293/291 395/398/395
f 396/399/396 397/400/397 293/295/293
f 293/295/293 292/294/292 396/399/396
f 397/400/397 398/401/398 294/296/294
f 294/296/294 293/295/293 397/400/397
f 398/401/398 399/402/399 295/297/295
f 295/297/295 294/296/294 398/401/398
f 399/402/399 400/403/400 296/298/296
f 296/298/296 295/297/295 399/402/399
f 400/403/400 401/404/401 297/299/297
f 297/299/297 296/298/296 400/403/400
f 401/404/401 402/405/402 297/299/297
f 298/300/298 297/299/297 402/405/402
f 402/405/402 403/406/403 299/301/299
f 299/301/299 298/300/298 402/405/402
f 403/406/403 404/407/404 300/302/300
f 300/302/300 299/301/299 403/406/403
f 404/407/404 405/408/405 301/303/301
f 301/303/301 300/302/300 404/407/404
f 406/409/406 302/304/302 405/408/405
f 301/303/301 405/408/405 302/304/302
f 406/409/406 407/410/407 302/304/302
f 303/305/303 302/304/302 407/410/407
f 408/411/408 304/306/304 407/410/407
f 303/305/303 407/410/407 304/306/304
f 409/412/409 305/307/305 408/411/408
f 304/306/304 408/411/408 305/307/305
f 409/412/409 410/413/410 306/308/306
f 306/308/306 305/307/305 409/412/409
f 411/414/411 307/309/307 410/413/410
f 306/308/306 410/413/410 307/309/307
f 411/414/411 412/415/412 307/309/307
f 308/310/308 307/309/307 412/415/412
f 412/415/412 413/416/413 309/311/309
f 309/311/309 308/310/308 412/415/412
f 414/417/414 310/312/310 413/416/413
f 309/311/309 413/416/413 310/312/310
f 415/418/415 311/313/311 414/417/414
f 310/312/310 414/417/414 311/313/311
f 415/418/415 416/419/416 312/314/312
f 312/314/312 311/313/311 415/418/415
f 416/419/416 313/420/313 209/315/209
f 209/315/209 312/314/312 416/419/416
f 2/527/417 1/526/417 209/421/417
f 209/421/417 210/422/417 2/527/417
f 210/422/417 211/423/417 2/527/417
f 3/528/417 2/527/417 211/423/417
f 211/423/417 212/424/417 4/529/417
f 4/529/417 3/528/417 211/423/417
f 4/529/417 212/424/417 5/530/417
f 213/425/417 5/530/417 212/424/417
f 213/425/417 214/426/417 5/530/417
f 6/531/417 5/530/417 214/426/417
f 215/427/417 7/532/417 214/426/417
f 6/531/417 214/426/417 7/532/417
f 7/532/417 215/427/417 8/533/417
f 216/428/417 8/533/417 215/427/417
f 216/428/417 217/429/417 8/533/417
f 9/534/417 8/533/417 217/429/417
f 217/429/417 218/430/417 9/534/417
f 10/535/417 9/534/417 218/430/417
f 218/430/417 219/431/417 11/536/417
f 11/536/417 10/535/417 218/430/417
f 11/536/417 219/431/417 220/432/417
f 220/432/417 12/537/417 11/536/417
f 220/432/417 221/433/417 13/538/417
f 13/538/417 12/537/417 220/432/417
f 221/433/417 222/434/417 13/538/417
f 14/539/417 13/538/417 222/434/417
f 14/539/417 222/434/417 15/540/417
f 223/435/417 15/540/417 222/434/417
f 224/436/417 16/541/417 15/540/417
f 15/540/417 223/435/417 224/436/417
f 16/541/417 224/436/417 17/542/417
f 225/437/417 17/542/417 224/436/417
f 226/438/417 18/543/417 17/542/417
f 17/542/417 225/437/417 226/438/417
f 18/543/417 226/438/417 19/544/417
f 227/439/417 19/544/417 226/438/417
f 19/544/417 227/439/417 20/545/417
f 228/440/417 20/545/417 227/439/417
f 229/441/417 21/546/417 20/545/417
f 20/545/417 228/440/417 229/441/417
f 21/546/417 229/441/417 230/442/417
f 230/442/417 22/547/417 21/546/417
f 22/547/417 230/442/417 23/548/417
f 231/443/417 23/548/417 230/442/417
f 23/548/417 231/443/417 232/444/417
f 232/444/417 24/549/417 23/548/417
f 24/549/417 232/444/417 233/445/417
f 233/445/417 25/550/417 24/549/417
f 234/446/417 26/551/417 233/445/417
f 25/550/417 233/445/417 26/551/417
f 26/551/417 234/446/417 235/447/417
f 235/447/417 27/552/417 26/551/417
f 235/447/417 236/448/417 28/553/417
f 28/553/417 27/552/417 235/447/417
f 29/554/417 28/553/417 237/449/417
f 236/448/417 237/449/417 28/553/417
f 237/449/417 238/450/417 30/555/417
f 30/555/417 29/554/417 237/449/417
f 238/450/417 239/451/417 31/556/417
f 31/556/417 30/555/417 238/450/417
f 239/451/417 240/452/417 31/556/417
f 32/557/417 31/556/417 240/452/417
f 32/557/417 240/452/417 33/558/417
f 241/453/417 33/558/417 240/452/417
f 33/558/417 241/453/417 34/559/417
f 242/454/417 34/559/417 241/453/417
f 34/559/417 242/454/417 243/455/417
f 243/455/417 35/560/417 34/559/417
f 243/455/417 244/456/417 35/560/417
f 36/561/417 35/560/417 244/456/417
f 37/562/417 36/561/417 244/456/417
f 244/456/417 245/457/417 37/562/417
f 37/562/417 245/457/417 246/458/417
f 246/458/417 38/563/417 37/562/417
f 38/563/417 246/458/417 39/564/417
f 247/459/417 39/564/417 246/458/417
f 39/564/417 247/459/417 248/460/417
f 248/460/417 40/565/417 39/564/417
f 41/566/417 40/565/417 248/460/417
f 248/460/417 249/461/417 41/566/417
f 41/566/417 249/461/417 250/462/417
f 250/462/417 42/567/417 41/566/417
f 250/462/417 251/463/417 43/568/417
f 43/568/417 42/567/417 250/462/417
f 43/568/417 251/463/417 252/464/417
f 252/464/417 44/569/417 43/568/417
f 44/569/417 252/464/417 45/570/417
f 253/465/417 45/570/417 252/464/417
f 45/570/417 253/465/417 46/571/417
f 254/466/417 46/571/417 253/465/417
f 254/466/417 255/467/417 46/571/417
f 47/572/417 46/571/417 255/467/417
f 47/572/417 255/467/417 256/468/417
f 256/468/417 48/573/417 47/572/417
f 48/573/417 256/468/417 49/574/417
f 257/469/417 49/574/417 256/468/417
f 257/469/417 258/470/417 49/574/417
f 50/575/417 49/574/417 258/470/417
f 50/575/417 258/470/417 259/471/417
f 259/471/417 51/576/417 50/575/417
f 51/576/417 259/471/417 52/577/417
f 260/472/417 52/577/417 259/471/417
f 53/578/417 52/577/417 261/473/417
f 260/472/417 261/473/417 52/577/417
f 262/474/417 54/579/417 261/473/417
f 53/578/417 261/473/417 54/579/417
f 55/580/417 54/579/417 263/475/417
f 262/474/417 263/475/417 54/579/417
f 56/581/417 55/580/417 263/475/417
f 263/475/417 264/476/417 56/581/417
f 56/581/417 264/476/417 57/582/417
f 265/477/417 57/582/417 264/476/417
f 58/583/417 57/582/417 266/478/417
f 265/477/417 266/478/417 57/582/417
f 267/479/417 59/584/417 266/478/417
f 58/583/417 266/478/417 59/584/417
f 59/584/417 267/479/417 60/585/417
f 268/480/417 60/585/417 267/479/417
f 61/586/417 60/585/417 269/481/417
f 268/480/417 269/481/417 60/585/417
f 62/587/417 61/586/417 270/482/417
f 269/481/417 270/482/417 61/586/417
f 63/588/417 62/587/417 270/482/417
f 270/482/417 271/483/417 63/588/417
f 63/588/417 271/483/417 272/484/417
f 272/484/417 64/589/417 63/588/417
f 65/590/417 64/589/417 272/484/417
f 272/484/417 273/485/417 65/590/417
f 66/591/417 65/590/417 274/486/417
f 273/485/417 274/486/417 65/590/417
f 66/591/417 274/486/417 67/592/417
f 275/487/417 67/592/417 274/486/417
f 276/488/417 68/593/417 67/592/417
f 67/592/417 275/487/417 276/488/417
f 68/593/417 276/488/417 69/594/417
f 277/489/417 69/594/417 276/488/417
f 278/490/417 70/595/417 69/594/417
f 69/594/417 277/489/417 278/490/417
f 70/595/417 278/490/417 71/596/417
f 279/491/417 71/596/417 278/490/417
f 71/596/417 279/491/417 72/597/417
f 280/492/417 72/597/417 279/491/417
f 281/493/417 73/598/417 72/597/417
f 72/597/417 280/492/417 281/493/417
f 73/598/417 281/493/417 282/494/417
f 282/494/417 74/599/417 73/598/417
f 74/599/417 282/494/417 75/600/417
f 283/495/417 75/600/417 282/494/417
f 75/600/417 283/495/417 284/496/417
f 284/496/417 76/601/417 75/600/417
f 76/601/417 284/496/417 285/497/417
f 285/497/417 77/602/417 76/601/417
f 286/498/417 78/603/417 285/497/417
f 77/602/417 285/497/417 78/603/417
f 78/603/417 286/498/417 287/499/417
f 287/499/417 79/604/417 78/603/417
f 287/499/417 288/500/417 80/605/417
f 80/605/417 79/604/417 287/499/417
f 81/606/417 80/605/417 289/501/417
f 288/500/417 289/501/417 80/605/417
f 289/501/417 290/502/417 82/607/417
f 82/607/417 81/606/417 289/501/417
f 290/502/417 291/503/417 83/608/417
f 83/608/417 82/607/417 290/502/417
f 291/503/417 292/504/417 83/608/417
f 84/609/417 83/608/417 292/504/417
f 293/505/417 85/610/417 292/504/417
f 84/609/417 292/504/417 85/610/417
f 294/506/417 86/611/417 293/505/417
f 85/610/417 293/505/417 86/611/417
f 295/507/417 87/612/417 86/611/417
f 86/611/417 294/506/417 295/507/417
f 295/507/417 296/508/417 87/612/417
f 88/613/417 87/612/417 296/508/417
f 89/614/417 88/613/417 296/508/417
f 296/508/417 297/509/417 89/614/417
f 298/510/417 90/615/417 89/614/417
f 89/614/417 297/509/417 298/510/417
f 299/511/417 91/616/417 298/510/417
f 90/615/417 298/510/417 91/616/417
f 300/512/417 92/617/417 91/616/417
f 91/616/417 299/511/417 300/512/417
f 93/618/417 92/617/417 300/512/417
f 300/512/417 301/513/417 93/618/417
f 302/514/417 94/619/417 93/618/417
f 93/618/417 301/513/417 302/514/417
f 302/514/417 303/515/417 95/620/417
f 95/620/417 94/619/417 302/514/417
f 304/516/417 96/621/417 95/620/417
f 95/620/417 303/515/417 304/516/417
f 305/517/417 97/622/417 304/516/417
f 96/621/417 304/516/417 97/622/417
f 306/518/417 98/623/417 305/517/417
f 97/622/417 305/517/417 98/623/417
f 306/518/417 307/519/417 98/623/417
f 99/624/417 98/623/417 307/519/417
f 308/520/417 100/625/417 99/624/417
f 99/624/417 307/519/417 308/520/417
f 309/521/417 101/626/417 308/520/417
f 100/625/417 308/520/417 101/626/417
f 309/521/417 310/522/417 101/626/417
f 102/627/417 101/626/417 310/522/417
f 311/523/417 103/628/417 102/627/417
f 102/627/417 310/522/417 311/523/417
f 312/524/417 104/629/417 311/523/417
f 103/628/417 311/523/417 104/629/417
f 1/630/417 104/629/417 209/525/417
f 312/524/417 209/525/417 104/629/417
f 106/737/418 314/632/418 313/631/418
f 313/631/418 105/736/418 106/737/418
f 106/737/418 315/633/418 314/632/418
f 315/633/418 106/737/418 107/738/418
f 108/739/418 316/634/418 315/633/418
f 315/633/418 107/738/418 108/739/418
f 108/739/418 109/740/418 316/634/418
f 317/635/418 316/634/418 109/740/418
f 109/740/418 318/636/418 317/635/418
f 318/636/418 109/740/418 110/741/418
f 111/742/418 319/637/418 318/636/418
f 318/636/418 110/741/418 111/742/418
f 111/742/418 112/743/418 319/637/418
f 320/638/418 319/637/418 112/743/418
f 112/743/418 321/639/418 320/638/418
f 321/639/418 112/743/418 113/744/418
f 113/744/418 322/640/418 321/639/418
f 322/640/418 113/744/418 114/745/418
f 115/746/418 323/641/418 322/640/418
f 322/640/418 114/745/418 115/746/418
f 115/746/418 324/642/418 323/641/418
f 324/642/418 115/746/418 116/747/418
f 116/747/418 117/748/418 324/642/418
f 325/643/418 324/642/418 117/748/418
f 326/644/418 325/643/418 117/748/418
f 117/748/418 118/749/418 326/644/418
f 119/750/418 327/645/418 326/644/418
f 326/644/418 118/749/418 119/750/418
f 328/646/418 327/645/418 119/750/418
f 119/750/418 120/751/418 328/646/418
f 121/752/418 329/647/418 328/646/418
f 328/646/418 120/751/418 121/752/418
f 330/648/418 329/647/418 121/752/418
f 121/752/418 122/753/418 330/648/418
f 122/753/418 123/754/418 330/648/418
f 331/649/418 330/648/418 123/754/418
f 123/754/418 124/755/418 331/649/418
f 332/650/418 331/649/418 124/755/418
f 333/651/418 332/650/418 124/755/418
f 124/755/418 125/756/418 333/651/418
f 125/756/418 126/757/418 334/652/418
f 334/652/418 333/651/418 125/756/418
f 127/758/418 335/653/418 334/652/418
f 334/652/418 126/757/418 127/758/418
f 336/654/418 335/653/418 127/758/418
f 127/758/418 128/759/418 336/654/418
f 128/759/418 337/655/418 336/654/418
f 337/655/418 128/759/418 129/760/418
f 338/656/418 337/655/418 130/761/418
f 129/760/418 130/761/418 337/655/418
f 130/761/418 131/762/418 339/657/418
f 339/657/418 338/656/418 130/761/418
f 339/657/418 131/762/418 132/763/418
f 132/763/418 340/658/418 339/657/418
f 340/658/418 132/763/418 341/659/418
f 133/764/418 341/659/418 132/763/418
f 134/765/418 341/659/418 133/764/418
f 341/659/418 134/765/418 342/660/418
f 135/766/418 343/661/418 342/660/418
f 342/660/418 134/765/418 135/766/418
f 344/662/418 343/661/418 135/766/418
f 135/766/418 136/767/418 344/662/418
f 137/768/418 344/662/418 136/767/418
f 344/662/418 137/768/418 345/663/418
f 138/769/418 346/664/418 345/663/418
f 345/663/418 137/768/418 138/769/418
f 347/665/418 346/664/418 138/769/418
f 138/769/418 139/770/418 347/665/418
f 348/666/418 347/665/418 139/770/418
f 139/770/418 140/771/418 348/666/418
f 141/772/418 349/667/418 348/666/418
f 348/666/418 140/771/418 141/772/418
f 142/773/418 350/668/418 141/772/418
f 349/667/418 141/772/418 350/668/418
f 143/774/418 350/668/418 142/773/418
f 350/668/418 143/774/418 351/669/418
f 352/670/418 351/669/418 143/774/418
f 143/774/418 144/775/418 352/670/418
f 145/776/418 352/670/418 144/775/418
f 352/670/418 145/776/418 353/671/418
f 353/671/418 145/776/418 354/672/418
f 146/777/418 354/672/418 145/776/418
f 147/778/418 354/672/418 146/777/418
f 354/672/418 147/778/418 355/673/418
f 356/674/418 355/673/418 147/778/418
f 147/778/418 148/779/418 356/674/418
f 149/780/418 356/674/418 148/779/418
f 356/674/418 149/780/418 357/675/418
f 150/781/418 357/675/418 149/780/418
f 357/675/418 150/781/418 358/676/418
f 358/676/418 150/781/418 359/677/418
f 151/782/418 359/677/418 150/781/418
f 360/678/418 359/677/418 151/782/418
f 151/782/418 152/783/418 360/678/418
f 153/784/418 360/678/418 152/783/418
f 360/678/418 153/784/418 361/679/418
f 361/679/418 153/784/418 362/680/418
f 154/785/418 362/680/418 153/784/418
f 362/680/418 154/785/418 363/681/418
f 155/786/418 363/681/418 154/785/418
f 156/787/418 363/681/418 155/786/418
f 363/681/418 156/787/418 364/682/418
f 365/683/418 364/682/418 156/787/418
f 156/787/418 157/788/418 365/683/418
f 365/683/418 157/788/418 158/789/418
f 158/789/418 366/684/418 365/683/418
f 367/685/418 158/789/418 159/790/418
f 158/789/418 367/685/418 366/684/418
f 367/685/418 159/790/418 160/791/418
f 160/791/418 368/686/418 367/685/418
f 160/791/418 161/792/418 368/686/418
f 369/687/418 368/686/418 161/792/418
f 370/688/418 161/792/418 162/793/418
f 161/792/418 370/688/418 369/687/418
f 370/688/418 162/793/418 163/794/418
f 163/794/418 371/689/418 370/688/418
f 163/794/418 164/795/418 371/689/418
f 372/690/418 371/689/418 164/795/418
f 373/691/418 164/795/418 165/796/418
f 164/795/418 373/691/418 372/690/418
f 374/692/418 165/796/418 166/797/418
f 165/796/418 374/692/418 373/691/418
f 374/692/418 166/797/418 167/798/418
f 167/798/418 375/693/418 374/692/418
f 376/694/418 167/798/418 168/799/418
f 167/798/418 376/694/418 375/693/418
f 168/799/418 169/800/418 376/694/418
f 377/695/418 376/694/418 169/800/418
f 378/696/418 377/695/418 169/800/418
f 169/800/418 170/801/418 378/696/418
f 378/696/418 170/801/418 171/802/418
f 171/802/418 379/697/418 378/696/418
f 380/698/418 379/697/418 171/802/418
f 171/802/418 172/803/418 380/698/418
f 380/698/418 172/803/418 173/804/418
f 173/804/418 381/699/418 380/698/418
f 382/700/418 381/699/418 173/804/418
f 173/804/418 174/805/418 382/700/418
f 174/805/418 175/806/418 382/700/418
f 383/701/418 382/700/418 175/806/418
f 175/806/418 176/807/418 383/701/418
f 384/702/418 383/701/418 176/807/418
f 385/703/418 384/702/418 176/807/418
f 176/807/418 177/808/418 385/703/418
f 177/808/418 178/809/418 386/704/418
f 386/704/418 385/703/418 177/808/418
f 386/704/418 178/809/418 179/810/418
f 179/810/418 387/705/418 386/704/418
f 388/706/418 387/705/418 179/810/418
f 179/810/418 180/811/418 388/706/418
f 389/707/418 180/811/418 181/812/418
f 180/811/418 389/707/418 388/706/418
f 390/708/418 389/707/418 182/813/418
f 181/812/418 182/813/418 389/707/418
f 182/813/418 183/814/418 391/709/418
f 391/709/418 390/708/418 182/813/418
f 391/709/418 183/814/418 184/815/418
f 184/815/418 392/710/418 391/709/418
f 392/710/418 184/815/418 393/711/418
f 185/816/418 393/711/418 184/815/418
f 393/711/418 186/817/418 394/712/418
f 186/817/418 393/711/418 185/816/418
f 187/818/418 395/713/418 394/712/418
f 394/712/418 186/817/418 187/818/418
f 187/818/418 188/819/418 396/714/418
f 396/714/418 395/713/418 187/818/418
f 396/714/418 189/820/418 397/715/418
f 189/820/418 396/714/418 188/819/418
f 190/821/418 398/716/418 397/715/418
f 397/715/418 189/820/418 190/821/418
f 190/821/418 191/822/418 399/717/418
f 399/717/418 398/716/418 190/821/418
f 191/822/418 192/823/418 400/718/418
f 400/718/418 399/717/418 191/822/418
f 193/824/418 401/719/418 400/718/418
f 400/718/418 192/823/418 193/824/418
f 194/825/418 402/720/418 193/824/418
f 401/719/418 193/824/418 402/720/418
f 402/720/418 195/826/418 403/721/418
f 195/826/418 402/720/418 194/825/418
f 195/826/418 196/827/418 404/722/418
f 404/722/418 403/721/418 195/826/418
f 404/722/418 197/828/418 405/723/418
f 197/828/418 404/722/418 196/827/418
f 405/723/418 197/828/418 406/724/418
f 198/829/418 406/724/418 197/828/418
f 406/724/418 199/830/418 407/725/418
f 199/830/418 406/724/418 198/829/418
f 199/830/418 200/831/418 408/726/418
f 408/726/418 407/725/418 199/830/418
f 408/726/418 201/832/418 409/727/418
f 201/832/418 408/726/418 200/831/418
f 409/727/418 202/833/418 410/728/418
f 202/833/418 409/727/418 201/832/418
f 410/728/418 202/833/418 411/729/418
f 203/834/418 411/729/418 202/833/418
f 203/834/418 204/835/418 412/730/418
f 412/730/418 411/729/418 203/834/418
f 412/730/418 205/836/418 413/731/418
f 205/836/418 412/730/418 204/835/418
f 413/731/418 205/836/418 414/732/418
f 206/837/418 414/732/418 205/836/418
f 414/732/418 206/837/418 415/733/418
f 207/838/418 415/733/418 206/837/418
f 415/733/418 208/839/418 416/734/418
f 208/839/418 415/733/418 207/838/418
f 208/839/418 105/840/418 313/735/418
f 313/735/418 416/734/418 208/839/418
